<svg width="201" height="164" viewBox="0 0 201 164" fill="none" xmlns="http://www.w3.org/2000/svg">
<path d="M125.811 114.998C99.1588 135.445 72.1742 150.202 50.1032 157.538C39.0654 161.208 29.2823 163.012 21.3969 162.761C13.507 162.51 7.59241 160.206 4.16803 155.742C0.743661 151.279 0.0498211 144.969 1.85042 137.284C3.65 129.602 7.92679 120.62 14.3293 110.909C27.1316 91.4913 48.3729 69.2488 75.0249 48.8013C101.677 28.3538 128.662 13.5973 150.733 6.26043C161.77 2.59124 171.553 0.786422 179.439 1.0375C187.329 1.28873 193.243 3.59288 196.668 8.05634C200.092 12.5198 200.786 18.8293 198.985 26.5151C197.186 34.1965 192.909 43.1785 186.507 52.8895C173.704 72.3075 152.463 94.55 125.811 114.998Z" stroke="#207748" stroke-opacity="0.5" stroke-width="0.947529"/>
</svg>
