<svg width="269" height="124" viewBox="0 0 269 124" fill="none" xmlns="http://www.w3.org/2000/svg">
<path d="M147.973 24.9441C184.687 38.2651 216.374 54.5477 237.926 70.0934C248.705 77.8682 256.925 85.4425 261.976 92.3517C267.039 99.2774 268.842 105.427 267.03 110.42C265.219 115.412 259.892 118.975 251.566 121.043C243.26 123.106 232.095 123.646 218.838 122.7C192.332 120.809 157.576 112.983 120.863 99.6622C84.1489 86.3411 52.4616 70.0586 30.9097 54.5128C20.1311 46.738 11.9103 39.1637 6.85972 32.2545C1.797 25.3288 -0.00601268 19.1791 1.80545 14.1866C3.61691 9.19409 8.94389 5.63143 17.2698 3.56355C25.5758 1.50063 36.7409 0.960175 49.9973 1.90615C76.5035 3.7976 111.259 11.623 147.973 24.9441Z" stroke="#207748" stroke-opacity="0.15" stroke-width="0.947529"/>
</svg>
